<svg width="23" height="16" viewBox="0 0 23 16" fill="none" xmlns="http://www.w3.org/2000/svg">
<path d="M1.17188 7C0.61959 7 0.171875 7.44772 0.171875 8C0.171875 8.55228 0.61959 9 1.17188 9V7ZM22.008 8.70711C22.3985 8.31658 22.3985 7.68342 22.008 7.29289L15.6441 0.928932C15.2535 0.538408 14.6204 0.538408 14.2298 0.928932C13.8393 1.31946 13.8393 1.95262 14.2298 2.34315L19.8867 8L14.2298 13.6569C13.8393 14.0474 13.8393 14.6805 14.2298 15.0711C14.6204 15.4616 15.2535 15.4616 15.6441 15.0711L22.008 8.70711ZM1.17188 8V9H21.3009V8V7H1.17188V8Z" fill="#232536"/>
</svg>
